<?xml version="1.0" standalone="no"?>
<!DOCTYPE svg PUBLIC "-//W3C//DTD SVG 20010904//EN" "http://www.w3.org/TR/2001/REC-SVG-20010904/DTD/svg10.dtd">
<!-- Created using Krita: https://krita.org -->
<svg xmlns="http://www.w3.org/2000/svg" 
    xmlns:xlink="http://www.w3.org/1999/xlink"
    xmlns:krita="http://krita.org/namespaces/svg/krita"
    xmlns:sodipodi="http://sodipodi.sourceforge.net/DTD/sodipodi-0.dtd"
    width="600pt"
    height="156.24pt"
    viewBox="0 0 600 156.24">
<defs/>
<text id="shape0" krita:useRichText="true" krita:textVersion="2" transform="matrix(0.991053693776784 0 0 1.00296227670413 58.9431299396837 60.5278243567686)" fill="#000000" stroke-opacity="0" stroke="#000000" stroke-width="0" stroke-linecap="square" stroke-linejoin="bevel"></text><rect id="shape1" transform="matrix(0.991053693776784 0 0 1.00296227670413 5.98283412598217 5.76568750139969)" fill="none" stroke="#000000" stroke-width="3.672" stroke-linecap="square" stroke-linejoin="bevel" width="593.76" height="144"/><rect id="shape2" transform="translate(12.48, 12)" fill="none" stroke="#000000" stroke-width="2.232" stroke-linecap="square" stroke-linejoin="bevel" width="575.52" height="130.8"/><text id="shape3" krita:useRichText="true" krita:textVersion="2" transform="matrix(1.04695728412096 0.0183838559105421 -0.018379467040095 1.11212336583379 326.741481169171 100.275566186997)" fill="#000000" stroke-opacity="0" stroke="#000000" stroke-width="0" stroke-linecap="square" stroke-linejoin="bevel"></text><path id="shape4" transform="matrix(1.04695728412096 0.0183838559105421 -0.018379467040095 1.11212336583379 562.323499088738 115.34327132191)" fill="none" stroke="#000000" stroke-width="2.232" stroke-linecap="square" stroke-linejoin="bevel" d="M0 0.100982L11.9993 0L12.0576 4.55956L6.11814 8.78529L0.289921 4.25016Z" sodipodi:nodetypes="cccccc"/><path id="shape5" transform="matrix(1.04695728412096 0.0183838559105421 0.0027239207826712 1.11249392693197 563.33341775384 115.964845540973)" fill="none" stroke="#000000" stroke-width="2.232" stroke-linecap="square" stroke-linejoin="bevel" d="M0 0.911912L0.249024 3.63679L5.58449 7.41471L10.4802 3.2514L10.21 0L0 0.911912" sodipodi:nodetypes="cccccc"/><path id="shape6" transform="matrix(1.04695728412096 0.0183838559105421 0.0027239207826712 1.11249392693197 564.288988443089 116.576407835603)" fill="none" stroke="#000000" stroke-width="2.232" stroke-linecap="square" stroke-linejoin="bevel" d="M0 1.68269L1.27161 4.51342L4.87451 6.23411L6.89319 4.51342L8.99135 1.97038L8.56748 0L0.0529838 0.455956L0 1.68269" sodipodi:nodetypes="cccccccc"/><path id="shape7" transform="matrix(1.04695728412096 0.0183838559105421 0.0027239207826712 1.11249392693197 564.905146392946 116.75932175877)" fill="none" stroke="#000000" stroke-width="2.232" stroke-linecap="square" stroke-linejoin="bevel" d="M0.561628 1.96495L2.36308 5.07522L5.2136 4.8961L7.67735 2.02195L7.56079 0.385391L4.244 0L0 0.480382L0.561628 1.96495" sodipodi:nodetypes="cccccccc"/><path id="shape8" transform="matrix(1.04695728412096 0.0183838559105421 0.0027239207826712 1.11249392693197 567.02671822177 117.8382003829)" fill="none" stroke="#000000" stroke-width="2.232" stroke-linecap="square" stroke-linejoin="bevel" d="M0 0.952622L1.60541 2.8063L3.61349 0.819635L1.19214 0L0 0.952622" sodipodi:nodetypes="ccccc"/><path id="shape9" transform="matrix(1.04695728412096 0.0183838559105421 0.0027239207826712 1.11249392693197 570.620793100915 117.699023240134)" fill="none" stroke="#000000" stroke-width="2.232" stroke-linecap="square" stroke-linejoin="bevel" d="M0.868934 1.78311L1.02259 0L0 1.07747L0.868934 1.78311" sodipodi:nodetypes="cccc"/><path id="shape10" transform="matrix(1.04695728412096 0.0183838559105421 0.0027239207826712 1.11249392693197 574.715161095936 114.658621435183)" fill="none" stroke="#000000" stroke-width="0.312" stroke-linecap="square" stroke-linejoin="bevel" d="M0 0L1.01531 0.00767641L1.03404 1.22631L0 0" sodipodi:nodetypes="cccc"/><path id="shape11" transform="matrix(1.04695728412096 0.0183838559105421 0.0027239207826712 1.11249392693197 575.339300472111 114.861721842627)" fill="none" stroke="#000000" stroke-width="0.312" stroke-linecap="square" stroke-linejoin="bevel" d="M0 0.0153528L0.370905 0L0.153607 0.564216L0 0.0153528" sodipodi:nodetypes="cccc"/><path id="shape12" transform="matrix(1.04695728412096 0.0183838559105421 0.0027239207826712 1.11249392693197 561.300082376267 114.294967837849)" fill="none" stroke="#000000" stroke-width="0.312" stroke-linecap="square" stroke-linejoin="bevel" d="M0.798009 0L0 0.105551L0.0749304 1.29731L1.04153 0.38574L0.798009 0" sodipodi:nodetypes="ccccc"/><path id="shape13" transform="matrix(1.04695728412096 0.0183838559105421 0.0027239207826712 1.11249392693197 561.524299547448 114.559362664785)" fill="none" stroke="#000000" stroke-width="0.312" stroke-linecap="square" stroke-linejoin="bevel" d="M0 0.174638L0.251017 0.819457L0.83922 0L0 0.174638" sodipodi:nodetypes="cccc"/><path id="shape14" transform="matrix(1.04695728412096 0.0183838559105421 0.0027239207826712 1.11249392693197 575.154250257849 114.574530867388)" fill="none" stroke="#000000" stroke-width="0.312" stroke-linecap="square" stroke-linejoin="bevel" d="M0.176086 0.00575731L0.760543 0L0.625669 1.00753L0 0.79259L0.176086 0.00575731" sodipodi:nodetypes="ccccc"/><path id="shape15" transform="matrix(1.04695728412096 0.0183838559105421 0.0027239207826712 1.11249392693197 567.995956585096 125.731779420464)" fill="none" stroke="#000000" stroke-width="0.312" stroke-linecap="square" stroke-linejoin="bevel" d="M0 0.209182L0.610683 0.575731L1.30004 0L0 0.209182" sodipodi:nodetypes="cccc"/>
</svg>
